<svg width="137" height="48" viewBox="0 0 137 48" fill="none" xmlns="http://www.w3.org/2000/svg">
<g clip-path="url(#clip0_10415_1658)">
<path d="M2.1563 43.029C1.43553 43.029 0.810864 42.6757 0.282301 41.9689C0.0961024 41.6921 0 41.433 0 41.1856C0 40.9088 0.0961024 40.632 0.282301 40.3552C0.564602 39.9252 0.876935 39.7132 1.2193 39.7132C1.34543 39.7132 1.45355 39.7309 1.54965 39.7603C1.92205 39.8546 2.28243 39.8958 2.6308 39.8958C3.0993 39.8958 3.58582 39.8192 4.08435 39.6661C7.14762 38.9593 8.77535 38.606 8.96155 38.606L14.7818 37.3162C14.5956 36.9805 14.4995 36.6742 14.4995 36.3974C14.4995 35.9674 14.6857 34.6776 15.0641 32.5338C15.1902 31.8919 15.2503 31.244 15.2503 30.602C15.2503 30.019 15.2022 29.4241 15.1121 28.8057L15.0641 28.1167C15.0641 27.4452 15.2142 26.8386 15.5085 26.2968C15.8028 25.7608 16.1873 25.4899 16.6558 25.4899C17.5927 25.4899 18.0612 26.7149 18.0612 29.1709L17.7789 30.9672C17.2804 34.554 16.854 36.5505 16.5116 36.951L21.7672 35.8909C27.4613 34.8779 30.8549 34.1594 31.948 33.7294C32.2003 33.6352 32.4466 33.594 32.6988 33.594C33.1373 33.594 33.5457 33.7294 33.9181 34.0062C34.3866 34.3714 34.6209 34.8484 34.6209 35.4315C34.6209 35.832 34.4647 36.4445 34.1524 37.269C33.9962 37.6342 33.7319 37.8227 33.3535 37.8227C33.1313 37.8227 32.9391 37.7402 32.7649 37.5694C32.5907 37.3986 32.4286 37.2043 32.2724 36.9687C32.1162 36.739 31.882 36.6212 31.5696 36.6212L27.7195 37.2219C27.0288 37.2219 24.0136 37.7108 18.6619 38.6943L10.0247 40.579C8.89548 40.7969 7.77228 41.0384 6.64909 41.3152C5.58595 41.4978 4.53483 41.9159 3.50774 42.5579C3.06927 42.8641 2.61879 43.0173 2.14429 43.0173L2.1563 43.029ZM6.0965 29.9601C5.87426 29.9601 5.628 29.8364 5.3457 29.5949C4.84717 29.1944 4.5949 28.8411 4.5949 28.5348C4.5949 28.1697 4.62493 27.9694 4.691 27.9341C4.75106 27.9046 4.7871 27.8752 4.7871 27.8398C5.2556 27.5336 5.71209 27.2097 6.15055 26.874C7.18366 25.9552 8.34289 25.2484 9.62226 24.7596C10.5893 24.4239 11.4542 23.9174 12.205 23.2401L19.2445 16.7086H19.2926C19.5448 16.4612 19.701 16.2315 19.7611 16.0195C19.7611 15.9606 19.719 15.884 19.6409 15.7898C19.5628 15.6955 19.4908 15.6543 19.4307 15.6543C18.3676 15.6543 17.3645 15.7309 16.4275 15.884C14.8658 16.1608 13.2862 16.3316 11.6885 16.3905C11.0338 16.3905 10.4271 16.2315 9.88053 15.9076C9.33395 15.5836 9.04564 15.1184 9.0096 14.5059C9.0096 14.1407 9.14775 13.7991 9.43005 13.4928C9.61625 13.3103 9.82047 13.216 10.0427 13.216L10.325 13.2632C11.1359 13.54 11.9527 13.6754 12.7636 13.6754C13.2922 13.6754 13.8327 13.6224 14.3853 13.5164C14.9319 13.4104 15.5025 13.3397 16.0972 13.3103C16.3134 13.3103 16.5296 13.2808 16.7278 13.216C16.932 13.1571 17.1423 13.1218 17.3585 13.1218C18.1694 13.0924 18.9202 12.8332 19.6109 12.3385C20.3016 11.8497 21.1606 11.6023 22.1937 11.6023L23.1306 11.6494C24.6923 11.6494 25.4792 12.3267 25.4792 13.6754C25.4491 14.2879 25.1368 14.7944 24.5422 15.1949C22.3198 16.6379 20.2896 18.3694 18.4397 20.3954C19.0043 21.2553 19.659 21.8678 20.4098 22.233C21.8513 23.0634 23.2268 23.829 24.5422 24.5358C25.323 24.9952 25.7314 25.5665 25.7615 26.2379C25.7615 26.603 25.6593 26.9034 25.4551 27.1331C25.2509 27.3628 24.9626 27.4806 24.5842 27.4806C24.0196 27.4806 23.425 27.1743 22.8003 26.5618C22.3618 26.073 20.7041 25.0717 17.827 23.5699C16.9801 23.0811 16.4515 22.8337 16.2293 22.8337C15.977 22.8337 15.7308 22.9574 15.4785 23.1989C12.7876 25.59 11.0998 26.9446 10.4091 27.2509C9.09369 27.8634 7.90442 28.6467 6.84129 29.5949C6.55899 29.8423 6.30672 29.9601 6.09049 29.9601H6.0965Z" fill="#282828"/>
<path d="M33.5383 32.3572C32.9737 32.3278 32.6914 32.0981 32.6914 31.6681C32.6914 31.515 32.7455 31.3854 32.8536 31.2794C32.9617 31.1734 33.3641 30.9496 34.0489 30.6139C36.3313 29.6303 38.1933 28.3582 39.6348 26.7974C39.9171 26.4912 40.2595 26.2438 40.6679 26.0613C41.731 25.5724 42.7341 24.8186 43.6711 23.8055C44.0135 23.4051 44.3919 23.0399 44.8003 22.6983C45.455 22.0858 46.1277 21.2907 46.8185 20.3071C48.0978 18.7405 48.9147 17.1327 49.2571 15.4777C49.227 15.4188 49.1189 15.3835 48.9267 15.3835C45.1126 15.6603 42.7822 15.8723 41.9353 16.0254C41.4367 15.9665 40.8841 15.9312 40.2955 15.9312C39.827 15.9312 38.6077 15.9783 36.6376 16.0667L36.5896 16.1138C35.8988 16.0549 35.5565 15.7309 35.5565 15.1479C35.5565 14.4765 37.028 14.076 39.9652 13.9523C41.4668 13.8934 42.9383 13.7049 44.3739 13.3987C44.6261 13.3692 44.9204 13.3516 45.2628 13.3516H46.0136C47.6113 13.3516 49.1549 12.9982 50.6565 12.2914C50.8427 12.1678 51.047 12.1089 51.2692 12.1089C51.8338 12.1089 52.2362 12.4151 52.4885 13.0276C52.6146 13.3633 52.6747 13.6696 52.6747 13.9464C52.6747 14.0995 52.6567 14.2409 52.6267 14.3587C52.5005 14.6649 52.4044 15.0006 52.3444 15.3717C52.1582 16.2316 51.8098 17.0267 51.3113 17.7628C51.0289 18.0986 50.8427 18.4225 50.7466 18.7287C49.4312 21.7383 47.4131 24.1884 44.6922 26.0907C42.4698 27.8694 39.9531 29.4831 37.1361 30.9201C35.8207 31.7506 34.6195 32.2217 33.5203 32.3454L33.5383 32.3572ZM58.7352 47.9999C58.549 47.9999 58.3628 47.9705 58.1706 47.9057C58.1706 47.8762 58.1525 47.8586 58.1225 47.8586C57.9363 47.8291 57.7621 47.7643 57.606 47.676C56.9152 47.2755 56.5729 46.7866 56.5729 46.2036C56.5729 45.8031 56.8131 45.4085 57.2996 45.008C57.7862 44.6075 58.1045 44.101 58.2607 43.4885C59.0715 39.2244 59.498 36.9275 59.528 36.5859C59.528 36.2797 59.3718 36.1265 59.0595 36.1265H58.8733C57.8102 36.3444 56.729 36.4799 55.6359 36.5388C54.2904 36.6036 52.975 36.7979 51.6957 37.1395C51.1611 37.2632 50.6025 37.3221 50.0079 37.3221C49.0048 37.3221 48.0678 37.5518 47.1909 38.0112C47.0647 38.1054 46.9266 38.1466 46.7704 38.1466C46.4581 38.1172 46.1938 37.9759 45.9716 37.7344C45.6292 37.1808 45.455 36.7214 45.455 36.3562C45.455 35.6848 45.8154 35.3432 46.5362 35.3432H46.8185C47.0707 35.408 47.4732 35.4374 48.0378 35.4374C48.8486 35.4374 49.7135 35.3432 50.6205 35.1606C52.062 34.8249 53.5156 34.6541 54.9872 34.6541H55.3175C56.1945 34.6541 56.8011 34.4068 57.1495 33.9179C57.3657 33.7059 57.5219 33.594 57.618 33.594H57.8522C58.3207 33.594 58.8793 33.3938 59.516 32.9933C60.1587 32.5928 60.6812 32.3925 61.0897 32.3925C61.5582 32.3925 61.9486 32.5751 62.2609 32.9462C62.4772 33.1935 62.5913 33.4821 62.5913 33.8178C62.5913 34.0004 62.5432 34.2183 62.4531 34.4598C61.5762 36.8215 60.9816 39.3363 60.6692 42.0043C60.5431 42.8936 60.3869 43.6887 60.2007 44.3955C60.0746 44.7606 60.0145 45.1493 60.0145 45.5439C60.0145 45.8208 60.0446 46.1093 60.1106 46.4156L60.1587 46.6924C60.1587 47.0929 60.0085 47.4051 59.7142 47.6348C59.4139 47.8644 59.0955 47.9822 58.7532 47.9822L58.7352 47.9999ZM59.0655 31.8036C58.3147 31.8036 57.9363 31.1616 57.9363 29.8718C57.9663 28.953 58.0144 28.3817 58.0745 28.1697C58.4469 26.5442 58.6391 24.9363 58.6391 23.3403L58.591 22.2802C58.591 20.5604 58.6871 18.8583 58.8733 17.1739L59.2037 11.2843C59.2037 10.3008 59.0775 9.35254 58.8313 8.43377L58.7832 7.83303C58.7832 7.03794 59.1436 6.63745 59.8644 6.63745C60.1467 6.63745 60.429 6.73168 60.7113 6.91426C61.1798 7.24997 61.414 7.77414 61.414 8.48089C61.0717 12.8686 60.8014 16.7793 60.6152 20.2129H60.7113C60.7413 20.1835 62.9036 20.0774 67.1862 19.889C67.937 19.889 68.4355 20.2247 68.6878 20.902C68.7839 21.0846 68.8259 21.2671 68.8259 21.4556C68.8259 21.9444 68.5196 22.3155 67.9129 22.5628C67.3003 22.8102 66.7297 22.928 66.2011 22.928C65.8588 22.928 65.5104 22.8514 65.168 22.6983C65.138 22.6689 65.0479 22.6276 64.9097 22.5805C64.7716 22.5334 64.2791 22.5098 63.4322 22.5098C62.1168 22.5393 61.1798 22.5864 60.6152 22.6453V23.6583H60.6632L60.5671 26.4676C60.5671 27.357 60.6452 28.2463 60.8014 29.1356C60.8614 29.383 60.8975 29.6127 60.8975 29.8247C60.8975 30.6846 60.5071 31.2794 59.7262 31.621C59.504 31.7447 59.2878 31.8036 59.0715 31.8036H59.0655Z" fill="#282828"/>
<path d="M86.2293 31.945C86.1032 31.945 85.977 31.8979 85.8569 31.8096C85.3884 31.5328 85.046 31.1499 84.8238 30.6611C84.103 29.2535 83.0399 28.0991 81.6344 27.2098C80.8836 26.6268 80.2709 26.3382 79.8024 26.3382C79.6463 26.3382 79.5141 26.3853 79.406 26.4736C79.2979 26.5679 79.2078 26.6444 79.1477 26.7033C76.0845 29.0945 74.2225 30.614 73.5618 31.256C73.0933 31.6859 72.6849 31.8979 72.3425 31.8979C71.874 31.8979 71.4956 31.5328 71.2133 30.7907C71.1532 30.667 71.1172 30.5315 71.1172 30.3784C71.1172 29.8248 71.5376 29.2712 72.3845 28.7234C74.697 27.3158 76.8413 25.6844 78.8114 23.8469C81.3161 21.7031 82.9738 20.0304 83.7847 18.829C84.067 18.4933 84.2051 18.2753 84.2051 18.187C84.2051 18.1281 84.1811 18.0398 84.1331 17.9337C84.085 17.8277 82.5113 17.7571 79.418 17.7276C78.6372 17.7276 77.8864 17.8513 77.1656 18.0928C76.9134 18.1575 76.6791 18.187 76.4629 18.187C76.0244 18.187 75.634 18.0515 75.2916 17.7747C74.727 17.3448 74.4447 16.7794 74.4447 16.0726C74.6009 15.4896 75.0213 15.201 75.7121 15.201C77.6822 15.4189 79.0757 15.5249 79.8865 15.5249C80.8896 15.5249 81.9047 15.466 82.9378 15.3423C83.9048 15.3423 84.8778 15.0537 85.8449 14.4707C86.0971 14.3175 86.2833 14.241 86.4095 14.241C86.6618 14.241 87.1603 14.5944 87.9111 15.3011C88.2835 15.6074 88.4757 15.8842 88.4757 16.1315C88.4757 16.3141 88.3976 16.532 88.2414 16.7735C86.8359 19.1352 84.8178 21.5735 82.187 24.0883C81.9047 24.3357 81.7665 24.536 81.7665 24.6891C81.7665 24.9659 82.2651 25.549 83.2681 26.4383C83.6766 26.8034 84.049 27.1745 84.3973 27.5455C84.5835 27.7281 84.7878 27.8223 85.01 27.8223C85.1662 27.8223 85.3163 27.787 85.4545 27.7045C85.5926 27.628 85.7127 27.5868 85.8088 27.5868C86.1212 27.5868 86.2773 27.7575 86.2773 28.0933C86.3074 29.012 86.5116 29.8896 86.89 30.7141L86.938 30.9438C86.938 31.5858 86.7038 31.9274 86.2353 31.9568L86.2293 31.945ZM86.0431 45.1023C84.8839 45.1023 84.3072 44.2425 84.3072 42.5227C84.3072 40.3789 83.8508 38.3352 82.9438 36.4034C82.8177 36.1266 82.6915 35.6849 82.5714 35.0665C82.5714 34.6366 82.8537 34.4245 83.4183 34.4245C84.0129 34.4245 84.3733 34.6542 84.4994 35.1136C84.6856 35.8793 84.9079 36.6155 85.1541 37.3222C85.5926 38.612 85.9049 39.9313 86.0911 41.28C86.1512 41.6805 86.2233 42.0633 86.3014 42.4285C86.3794 42.7936 86.6197 43.0115 87.0281 43.0704C87.2804 43.1293 87.4786 43.1941 87.6408 43.253C87.797 43.3119 87.875 43.5593 87.875 43.9892L87.9231 44.3544C86.9501 44.8432 86.3254 45.0906 86.0491 45.0906L86.0431 45.1023ZM89.2805 47.3109C88.9982 47.3109 88.7159 47.252 88.4336 47.1283C87.839 46.8515 87.5087 46.3745 87.4486 45.7031C87.4486 45.4852 87.6228 45.0434 87.9651 44.3661L88.4817 44.319L89.3286 44.3661C91.1726 44.3661 92.9084 43.7831 94.5361 42.6169C94.9085 42.3107 95.1007 41.8336 95.1007 41.1917L95.1488 41.0091C94.6503 40.7617 94.3499 40.5968 94.2598 40.5026C93.8514 40.0432 93.3349 39.8135 92.7102 39.8135C91.4909 39.9077 90.662 40.32 90.2236 41.0562C89.8512 41.6098 89.4547 41.8866 89.0523 41.8866C88.8661 41.8866 88.6619 41.8101 88.4396 41.6569C88.0012 41.3212 87.7849 40.9384 87.7849 40.5085C87.7849 40.3553 87.815 40.1845 87.881 40.002C88.1633 39.3895 88.5838 38.9124 89.1484 38.5767C90.2416 37.9347 91.3708 37.6108 92.524 37.6108C93.8995 37.6108 94.8725 37.8876 95.4311 38.4412L95.7614 38.718C95.9777 38.3823 96.1699 37.7993 96.326 36.9688C96.5783 36.109 96.6985 35.2373 96.6985 34.348V34.0241C96.6985 33.0758 97.0588 32.5988 97.7796 32.5988C98.188 32.5988 98.5244 32.7578 98.7887 33.0817C99.053 33.4056 99.1851 33.812 99.1851 34.3009C99.1851 34.9428 98.4523 37.6461 96.9808 42.399C96.7285 42.9821 96.6083 43.5063 96.6083 43.9656L96.6564 44.6547C96.6564 45.2083 95.9056 45.5441 94.404 45.6677C92.8724 45.6972 91.4789 46.1742 90.2296 47.093C89.8872 47.2461 89.5749 47.3227 89.2926 47.3227L89.2805 47.3109ZM96.1759 32.587C96.0498 32.587 95.9236 32.5399 95.8035 32.4515C95.0827 31.839 94.7223 31.1971 94.7223 30.5198C94.7223 30.3077 94.7524 30.0898 94.8184 29.8778C95.2869 28.158 95.6293 25.3664 95.8515 21.5028C96.1338 18.0044 96.29 15.6604 96.32 14.4648C96.32 13.0866 96.1158 12.1325 95.7074 11.6142C95.1728 10.7249 94.9085 9.78847 94.9085 8.80491V8.48098L94.8605 8.34552C94.8605 8.09816 94.8785 7.86258 94.9085 7.63289C94.9386 7.40319 95.1428 7.2854 95.5212 7.2854C95.8035 7.2854 96.1939 7.42086 96.6924 7.69767C98.0679 8.71068 98.7586 11.2726 98.7586 15.3836C98.7586 16.6086 98.6806 17.8218 98.5244 19.0174C98.4283 19.6947 98.164 22.1625 97.7255 26.4265C97.257 29.9249 96.9928 31.7978 96.9267 32.0393C96.8666 32.4044 96.6144 32.5929 96.1759 32.5929V32.587Z" fill="#282828"/>
<path d="M124.324 15.2245C124.312 15.4012 124.209 15.5602 124.023 15.7192C123.951 15.7781 123.873 15.837 123.801 15.89C123.735 15.943 123.675 15.996 123.609 16.0431C123.356 16.2375 123.092 16.3612 122.816 16.4083C121.753 16.5909 121.068 16.6144 120.798 16.479C120.485 16.3258 120.401 15.7428 120.365 15.5249V15.4542C120.323 15.2716 120.215 14.8888 120.209 14.8829C120.209 14.8711 120.203 14.8652 120.203 14.8593C120.215 14.824 120.287 14.7769 120.323 14.7474L120.365 14.7062C120.678 14.4294 121.062 14.1408 121.579 14.0701C121.759 14.0466 121.927 13.9818 122.089 13.9229C122.167 13.8876 122.245 13.864 122.329 13.8404C122.462 13.7933 122.576 13.7933 122.666 13.8287C123.158 14.0112 123.705 14.2586 124.125 14.718C124.275 14.8888 124.348 15.0596 124.336 15.2304L124.324 15.2245Z" fill="#FFE888"/>
<path d="M122.528 18.2871C122.348 18.4284 122.15 18.611 121.982 18.8407C121.85 19.0233 121.651 19.088 121.453 19.1352C121.441 19.1352 121.435 19.141 121.429 19.141L120.792 19.3236C120.75 19.3413 120.684 19.359 120.594 19.3825H120.57C120.036 19.5298 119.591 19.4709 119.159 19.1999C118.666 18.8937 118.504 18.4402 118.666 17.8866C118.846 17.3271 119.183 16.9855 119.699 16.85C119.759 16.8323 119.813 16.797 119.849 16.7734C119.867 16.7558 119.91 16.7263 119.922 16.7263C119.97 16.7499 120.006 16.8088 120.048 16.8618C120.072 16.8971 120.096 16.9207 120.114 16.9442C120.372 17.2564 120.708 17.4095 121.111 17.4095H121.129C121.495 17.4095 121.85 17.386 122.12 17.3565C122.444 17.3388 122.6 17.4213 122.715 17.6863C122.799 17.8925 122.733 18.1045 122.522 18.2812L122.528 18.2871Z" fill="#F4D13D"/>
<path d="M118.011 19.359C118.011 19.359 117.999 19.3708 117.993 19.3767C117.843 19.5887 117.362 19.7595 117.008 19.8361C117.002 19.8361 116.99 19.842 116.972 19.842C116.846 19.895 116.695 19.9185 116.473 19.9185C115.764 20.0245 115.59 19.9303 115.584 19.9303C115.572 19.9126 115.548 19.895 115.524 19.8891C115.488 19.8832 115.44 19.8655 115.35 19.8302C114.96 19.6653 114.575 19.5004 114.191 19.3355C114.023 19.2707 113.98 19.2 113.98 19.1823C114.017 18.6051 114.599 17.8631 115.206 17.8513L115.608 17.8395C115.854 17.8277 116.089 17.8218 116.329 17.8159C116.473 17.8101 116.635 17.8218 116.767 17.8866C116.87 17.9337 116.954 17.9455 117.032 17.9102C117.122 17.8748 117.188 17.8042 117.242 17.6805L117.26 17.6275C117.278 17.5745 117.302 17.5156 117.326 17.4626C117.332 17.4449 117.338 17.4449 117.344 17.4508C117.338 17.5862 117.368 17.6923 117.446 17.7629C117.512 17.8395 117.62 17.8748 117.758 17.8689C117.656 18.293 117.801 18.6758 117.927 19.0174C117.951 19.0881 117.975 19.1705 117.987 19.253L117.999 19.3237L118.005 19.3472L118.011 19.359Z" fill="#FFE888"/>
<path d="M118.299 15.9841C117.837 16.4788 117.29 16.8027 116.684 16.95C116.569 16.9853 116.449 16.9853 116.317 16.9912C116.257 16.9912 116.191 16.9912 116.137 16.9971C115.855 16.9971 115.476 16.9735 115.122 16.7792C114.521 16.4376 114.407 15.5306 114.72 14.9829C114.888 14.6825 115.098 14.4881 115.374 14.388C115.681 14.2761 116.011 14.2054 116.359 14.1819H116.413C116.624 14.1819 116.804 14.2702 116.912 14.4469C117.128 14.8062 117.446 15.0005 117.909 15.0594C118.161 15.083 118.353 15.2243 118.431 15.4246C118.504 15.6189 118.449 15.8251 118.293 15.9959L118.299 15.9841Z" fill="#F4D13D"/>
<path d="M120.978 13.328C120.636 13.7344 120.185 13.9876 119.705 14.2586L119.663 14.2821C119.266 14.3705 118.948 14.3469 118.936 14.3469C118.498 14.3587 118.149 14.2762 117.837 14.0995C117.573 13.9582 117.368 13.5872 117.332 13.1984C117.314 12.9864 117.338 12.58 117.705 12.2914C117.891 12.1383 118.065 12.0382 118.233 11.9675L118.347 11.9145C118.347 11.9145 118.594 11.7791 118.996 11.7791C119.02 11.7791 119.05 11.7849 119.074 11.7849C119.26 11.8085 119.447 11.8203 119.621 11.8262C119.759 11.8321 119.903 11.8321 120.047 11.8438C120.131 11.8556 120.197 11.8615 120.233 11.8674C120.239 11.8733 120.252 11.8792 120.27 11.8792C120.324 11.891 120.504 11.9499 120.72 12.1442C120.972 12.3739 121.002 12.4564 121.038 12.5447C121.038 12.5565 121.044 12.5683 121.05 12.58C121.243 12.8156 121.225 13.0276 120.978 13.328Z" fill="#F4D13D"/>
<path d="M136.947 15.4306C136.881 15.2009 136.743 15.0537 136.521 14.9771C136.31 14.9064 136.106 14.8417 135.908 14.7474C135.211 14.4235 134.448 14.1055 133.632 13.9582C133.091 13.8581 132.532 13.7698 131.998 13.6873C131.475 13.6048 130.929 13.5224 130.4 13.4282C129.589 13.2809 128.724 13.222 127.841 13.2515C128.322 12.9452 128.616 12.4917 128.839 12.0912C128.911 11.9675 128.977 11.838 129.043 11.7143C129.115 11.5788 129.187 11.4434 129.265 11.3138C129.583 10.7543 129.541 10.2655 129.121 9.7884C128.953 9.59405 128.754 9.52926 128.508 9.58227C127.926 9.70006 127.337 9.88852 126.586 10.1771C126.346 10.2713 126.1 10.3538 125.859 10.4245C125.391 10.5776 124.904 10.7307 124.454 11.0134C124.46 11.0017 124.46 10.9899 124.466 10.984L124.484 10.9428C124.616 10.6012 124.748 10.2655 124.88 9.92386C125.139 9.27601 125.403 8.6046 125.643 7.93319C125.829 7.4149 126.003 6.88484 126.172 6.37245C126.382 5.74227 126.592 5.08852 126.826 4.45834C127.103 3.71625 127.037 3.04484 126.628 2.41466C126.526 2.26153 126.376 2.02595 126.076 1.9965C125.439 1.94349 124.934 2.13196 124.592 2.56779L124.496 2.68558C124.16 3.10963 123.811 3.54546 123.439 3.95184C123.066 4.35822 122.658 4.75282 122.268 5.13564C121.883 5.50079 121.493 5.88362 121.126 6.27822C121.114 6.29 121.102 6.30177 121.09 6.31355C121.084 6.31355 121.084 6.31944 121.078 6.31944C120.994 6.0603 120.904 5.80705 120.814 5.5538C120.736 5.33589 120.658 5.11797 120.586 4.90006C120.436 4.47012 120.207 4.07552 119.907 3.73392C119.547 3.32754 119.132 3.26865 118.67 3.55135C117.991 3.96951 117.492 4.61147 117.15 5.51846C116.826 6.36656 116.826 7.25 116.844 8.08631C116.85 8.19822 116.85 8.30423 116.85 8.41613C116.82 8.35135 116.796 8.28656 116.766 8.22178C116.609 7.84484 116.441 7.45024 116.183 7.10865C116.021 6.90251 115.859 6.70227 115.69 6.49613C115.462 6.21343 115.228 5.92484 115.006 5.63036C114.327 4.69392 113.51 3.79282 112.363 2.70325C111.81 2.18497 111.21 1.6549 110.411 0.983493C110.321 0.912818 110.237 0.836254 110.153 0.765579C109.906 0.553554 109.654 0.33564 109.384 0.147174C109.282 0.0823885 108.987 -0.117857 108.711 0.0941676C108.297 0.418094 108.086 0.777358 108.062 1.18963C108.038 1.61957 108.092 2.05539 108.146 2.42644C108.225 2.93883 108.363 3.42766 108.543 4.01073C108.693 4.49368 108.861 5.00607 109.113 5.48901C109.318 5.86006 109.534 6.26644 109.678 6.70227C109.816 7.12632 110.014 7.56803 110.297 8.09809C110.639 8.74006 111.036 9.35846 111.42 9.9592C111.588 10.2242 111.756 10.4834 111.924 10.7543C112.051 10.9486 112.177 11.1666 112.297 11.408C112.255 11.3845 112.213 11.3609 112.165 11.3432C111.114 10.878 110.141 10.5835 109.192 10.4421C109.132 10.4304 109.065 10.4245 108.999 10.4186L108.873 10.4009C107.864 10.2478 106.945 10.2831 106.062 10.4951C105.918 10.5305 105.792 10.6012 105.678 10.7013C105.359 10.984 105.305 11.6318 105.57 12.0559C105.852 12.5153 106.266 12.8569 106.663 13.1808L106.729 13.2338C106.801 13.2986 106.879 13.3634 106.951 13.4282C107.227 13.6637 107.516 13.8993 107.828 14.1113C107.582 14.0642 107.342 14.0407 107.095 14.0407C106.182 14.0407 105.432 14.4471 104.861 15.2539C104.711 15.4659 104.651 15.6956 104.693 15.9077C104.735 16.1315 104.885 16.3317 105.125 16.4907C105.257 16.5791 105.408 16.6498 105.558 16.7204C105.912 16.8853 106.272 17.0385 106.621 17.1621C106.957 17.2858 107.245 17.4861 107.546 17.6981C107.636 17.7629 107.732 17.8277 107.822 17.8866C108.213 18.1457 108.615 18.2871 109.047 18.3165C109.107 18.3165 109.168 18.3224 109.228 18.3283C109.336 18.3342 109.444 18.3459 109.546 18.3459C109.522 18.3636 109.504 18.3813 109.48 18.399C109.396 18.452 109.312 18.5109 109.234 18.5698C108.537 19.1057 107.858 19.7477 107.035 20.6605C106.278 21.5028 105.702 22.4392 105.329 23.4404C104.915 24.5594 104.843 25.5666 105.113 26.5089C105.329 27.2628 105.48 27.6279 106.567 27.6927C107.209 27.728 107.6 27.516 107.84 27.0036C107.978 26.7032 108.207 26.4382 108.531 26.1909C108.849 25.9553 109.15 25.6549 109.426 25.3015C109.996 24.5594 110.777 23.6053 111.72 22.7985C111.762 22.7631 111.81 22.7278 111.858 22.6983C111.876 22.6866 111.9 22.6689 111.918 22.6571L111.882 22.7867C111.816 23.0046 111.75 23.2284 111.696 23.4522C111.474 24.3533 111.33 25.3074 111.276 26.2969C111.21 27.4983 111.228 28.4937 111.33 29.436C111.378 29.8424 111.48 30.3666 111.834 30.8142L111.858 30.8436C111.942 30.9496 112.051 31.0792 112.231 31.0792H112.255C112.615 31.0498 113.078 30.9732 113.426 30.5904C113.516 30.4902 113.606 30.3901 113.69 30.29C113.78 30.1899 113.865 30.0898 113.955 29.9955L114.147 29.7835C114.561 29.3241 114.988 28.8471 115.324 28.3111C115.342 28.2817 115.354 28.2699 115.354 28.264C115.36 28.2699 115.372 28.2817 115.384 28.3052C115.426 28.3759 115.48 28.4348 115.534 28.4937L115.564 28.529C115.648 28.6174 115.727 28.6586 115.817 28.6645C115.895 28.6704 115.979 28.6291 116.057 28.5585C116.147 28.476 116.237 28.3994 116.327 28.3229C116.682 28.0107 117.048 27.6927 117.276 27.2392C117.312 27.1744 117.36 27.1096 117.426 27.0448C117.444 27.0213 117.841 26.4971 117.997 26.2026L118.009 26.185C118.009 26.185 118.021 26.1555 118.027 26.1496C118.255 25.6608 118.387 25.2132 118.435 24.7891C118.441 24.7302 118.459 24.6831 118.507 24.6242C118.55 24.5771 118.61 24.5064 118.658 24.4947C118.73 24.6478 119.228 25.6608 119.553 26.0613C119.571 26.0848 119.589 26.1084 119.607 26.132L119.649 26.1791C119.859 26.45 120.075 26.7268 120.309 26.9859C120.994 27.7339 121.739 28.5231 122.634 29.1651C123.421 29.7305 124.202 30.0898 125.018 30.2547C125.541 30.3666 126.022 29.972 126.124 29.5538C126.202 29.224 126.142 28.9177 126.064 28.6056C125.991 28.3229 125.925 28.0402 125.859 27.7516C125.751 27.304 125.643 26.8387 125.523 26.3852C125.271 25.4547 124.94 24.3769 124.346 23.3815L124.4 23.3992C124.484 23.4345 124.568 23.464 124.658 23.4993L124.868 23.5759C125.301 23.7408 125.745 23.9057 126.202 24.0235C127.055 24.2355 127.896 24.2178 128.833 24.1707C129.403 24.1472 129.902 23.9469 130.316 23.5759C130.46 23.4522 130.496 23.3109 130.424 23.1342C130.37 22.9987 130.28 22.8986 130.184 22.8044L130.136 22.7455C129.986 22.5864 129.842 22.4274 129.691 22.2684C129.391 21.9504 129.079 21.6264 128.808 21.279C128.73 21.1729 128.646 21.0728 128.568 20.9668C128.238 20.5369 127.896 20.0951 127.499 19.7006C127.391 19.5945 127.301 19.4709 127.205 19.3413L127.133 19.2471C127.133 19.2471 127.127 19.2353 127.121 19.2353H127.133C127.691 19.2942 128.25 19.2706 128.833 19.1587C129.733 18.9938 130.628 18.8583 131.499 18.7347C131.722 18.6993 131.938 18.6699 132.16 18.6404C132.623 18.5756 133.103 18.5109 133.572 18.4166C133.788 18.3754 133.986 18.2929 134.184 18.2046C134.581 18.022 134.917 17.8866 135.253 17.7864C135.65 17.6569 136.154 17.4566 136.515 17.0208C136.953 16.4966 137.097 15.9783 136.947 15.4306ZM125.997 11.1018L126.124 11.0605C126.334 10.984 126.538 10.9133 126.742 10.8426C127.247 10.6718 127.775 10.4893 128.28 10.2772C128.382 10.2301 128.478 10.2301 128.55 10.2772C128.64 10.3361 128.694 10.4716 128.694 10.6365C128.694 10.7778 128.586 10.9545 128.514 11.0723C128.19 11.6201 127.805 12.2561 127.367 12.8392C127.169 13.116 126.892 13.2986 126.544 13.3869C126.424 13.4223 126.304 13.4517 126.184 13.4812C125.811 13.5695 125.433 13.6578 125.079 13.8345C124.49 14.1349 124.063 14.4412 123.733 14.8063L123.703 14.8417L123.649 14.8947C123.487 15.0596 123.487 15.0655 123.325 14.9241C122.88 14.559 122.496 14.3469 122.093 14.235C122.099 14.2291 122.105 14.2291 122.111 14.2232C122.237 14.129 122.358 14.0348 122.484 13.9405L122.724 13.7639C122.946 13.5931 123.138 13.3869 123.319 13.1867C123.433 13.063 123.553 12.9393 123.673 12.8215C123.745 12.7567 123.823 12.6978 123.901 12.639C124.063 12.5153 124.226 12.3916 124.328 12.2149C124.694 11.5612 125.331 11.3374 125.997 11.1018ZM117.42 15.8193C117.649 15.8429 117.823 15.9666 117.895 16.1491C117.961 16.3258 117.913 16.5143 117.769 16.6674C117.348 17.115 116.856 17.4095 116.303 17.545C116.201 17.5744 116.093 17.5744 115.973 17.5803C115.919 17.5803 115.859 17.5803 115.811 17.5862C115.552 17.5862 115.21 17.5626 114.892 17.3859C114.345 17.0738 114.243 16.2551 114.525 15.7545C114.675 15.4836 114.868 15.3069 115.12 15.2127C115.396 15.1126 115.696 15.0478 116.015 15.0242H116.063C116.255 15.0242 116.417 15.1067 116.513 15.2657C116.712 15.5896 117 15.7663 117.42 15.8193ZM117.234 13.3163C117.402 13.1749 117.558 13.0866 117.715 13.0218L117.817 12.9747C117.817 12.9747 118.039 12.851 118.405 12.851C118.429 12.851 118.453 12.8569 118.477 12.8569C118.646 12.8804 118.814 12.8863 118.976 12.8922C119.102 12.8922 119.234 12.8922 119.36 12.9099C119.438 12.9217 119.499 12.9275 119.529 12.9334C119.529 12.9334 119.547 12.9452 119.559 12.9452C119.607 12.957 119.769 13.01 119.967 13.1867C120.195 13.3928 120.225 13.4694 120.255 13.5518C120.255 13.5636 120.261 13.5754 120.267 13.5813C120.442 13.7933 120.424 13.9877 120.201 14.2586C119.889 14.6296 119.481 14.8593 119.048 15.1008L119.012 15.1244C118.652 15.2068 118.363 15.1832 118.351 15.1832C117.955 15.195 117.637 15.1185 117.354 14.9594C117.114 14.8299 116.928 14.4942 116.898 14.1408C116.88 13.9464 116.904 13.5813 117.234 13.3163ZM118.279 16.8441C118.435 16.532 118.483 16.2551 118.435 15.9725C118.429 15.943 118.429 15.9312 118.423 15.9253H118.477C118.514 15.9253 118.556 15.9312 118.592 15.9194C118.826 15.9194 118.862 15.943 118.928 16.1432C118.976 16.2787 119.012 16.4201 119.042 16.5614L119.072 16.691C119.084 16.7263 119.078 16.7558 119.024 16.7793L118.97 16.8029C118.874 16.85 118.778 16.8971 118.682 16.9207C118.375 16.9972 118.117 17.1563 117.883 17.3977L117.853 17.4272C117.781 17.5037 117.715 17.5744 117.625 17.6098C117.919 17.3977 118.141 17.1386 118.279 16.8441ZM118.099 18.3931C118.261 17.8866 118.568 17.5744 119.036 17.4507C119.09 17.4331 119.138 17.4036 119.174 17.3801C119.192 17.3624 119.228 17.3388 119.24 17.3388C119.282 17.3624 119.318 17.4154 119.354 17.4625C119.378 17.492 119.396 17.5155 119.414 17.5391C119.649 17.8218 119.955 17.9631 120.321 17.9631H120.339C120.67 17.9631 120.994 17.9396 121.24 17.916C121.535 17.8983 121.679 17.9749 121.781 18.2164C121.859 18.4048 121.799 18.5933 121.607 18.7582C121.445 18.8878 121.264 19.0527 121.108 19.2588C120.988 19.4237 120.808 19.4826 120.628 19.5239C120.616 19.5239 120.61 19.5298 120.604 19.5298L120.027 19.6947C119.991 19.7123 119.931 19.7241 119.847 19.7477H119.823C119.336 19.8831 118.934 19.8301 118.544 19.5828C118.099 19.3059 117.949 18.8937 118.099 18.3931ZM120.033 17.115C119.751 16.9737 119.673 16.4495 119.643 16.2493V16.1845C119.607 16.0196 119.505 15.6721 119.499 15.6662C119.499 15.6544 119.499 15.6485 119.499 15.6426C119.511 15.6132 119.577 15.5661 119.607 15.5425L119.643 15.5072C119.925 15.2539 120.273 14.9948 120.742 14.93C120.904 14.9064 121.06 14.8475 121.204 14.7945C121.276 14.7651 121.349 14.7415 121.421 14.718C121.541 14.6767 121.643 14.6767 121.727 14.7062C122.171 14.8711 122.67 15.0949 123.048 15.5131C123.186 15.6662 123.253 15.8252 123.241 15.9783C123.229 16.1374 123.138 16.2846 122.97 16.4259C122.904 16.479 122.832 16.532 122.766 16.5791C122.706 16.6262 122.652 16.6733 122.592 16.7204C122.364 16.8971 122.123 17.009 121.871 17.0502C120.904 17.2152 120.285 17.2387 120.039 17.115H120.033ZM122.141 18.6993C122.159 18.6228 122.189 18.5403 122.231 18.4637C122.304 18.3401 122.382 18.181 122.382 17.9867C122.382 17.8925 122.364 17.7923 122.316 17.6863C122.478 17.5685 122.634 17.4566 122.79 17.3329C122.856 17.2858 122.928 17.2682 123 17.2917C123.108 17.3153 123.186 17.3859 123.223 17.4978C123.223 17.4978 123.283 17.6098 123.289 17.81C123.289 18.0102 123.235 18.1634 123.126 18.2576C123.114 18.2635 123.108 18.2694 123.096 18.2753C123.096 18.2753 123.078 18.2929 123.066 18.2988C123 18.3459 122.934 18.399 122.868 18.4461C122.7 18.5815 122.532 18.7052 122.328 18.7464L122.201 18.7641C122.153 18.7759 122.141 18.7582 122.141 18.7582C122.141 18.7582 122.129 18.7464 122.141 18.6993ZM120.73 7.74472C120.73 7.74472 120.76 7.72116 120.766 7.70938L121.385 6.95552L121.493 6.8495L122.31 6.07797C122.478 5.89539 122.658 5.7246 122.838 5.55969C123.036 5.383 123.235 5.19454 123.415 4.99429C123.643 4.74104 123.877 4.49368 124.111 4.2522C124.208 4.15208 124.304 4.04607 124.4 3.94595C124.628 3.70447 124.808 3.44533 124.946 3.1803C125.091 2.8976 125.553 2.63257 125.883 2.65024C125.931 2.65613 125.961 2.6738 125.997 2.7327C126.196 3.03306 126.292 3.32165 126.292 3.62202C126.292 3.82816 126.25 4.02251 126.166 4.20509C125.799 5.0473 125.529 5.93662 125.271 6.7965C125.217 6.9673 125.163 7.13809 125.115 7.30889C124.712 8.61049 124.208 10.1418 123.535 11.5847C123.271 12.1619 123.012 12.6743 122.58 13.0866C122.424 13.2397 122.243 13.4105 122.039 13.5342C121.757 13.6991 121.475 13.8993 121.204 14.1349C121.072 14.2468 120.916 14.2704 120.742 14.2939C120.76 14.2291 120.784 14.1702 120.814 14.1113C121.036 13.5813 120.94 13.2161 120.484 12.8569C120.195 12.6331 119.883 12.4034 119.469 12.3563C119.348 12.3386 119.258 12.2502 119.18 12.0677C118.988 11.6259 118.94 11.1725 119.036 10.7307C119.24 9.80607 119.679 8.96386 120.327 8.22766C120.424 8.12754 120.508 8.01564 120.574 7.90374C120.616 7.83306 120.67 7.77417 120.73 7.74472ZM117.354 7.98619C117.354 7.84484 117.366 7.70349 117.366 7.56214C117.378 7.48558 117.432 7.11454 117.492 6.77883L117.522 6.59625C117.637 5.97785 117.751 5.39478 118.153 4.90595C118.405 4.59969 118.712 4.35822 119.066 4.19331C119.18 4.13441 119.36 4.09319 119.577 4.34055C119.727 4.51724 119.853 4.72337 119.943 4.96484C120.099 5.37711 120.249 5.78938 120.4 6.20754L120.526 6.56681C120.604 6.76705 120.574 6.9084 120.436 7.05564C120.021 7.50914 119.505 8.07454 119.126 8.70472C118.64 9.52337 118.369 10.236 118.279 10.9428C118.213 11.4493 118.285 11.9204 118.501 12.3268C118.507 12.3445 118.52 12.3621 118.52 12.3739H118.483C118.399 12.368 118.321 12.3798 118.231 12.3857C118.195 12.3916 118.159 12.3916 118.099 12.4034C118.057 12.4093 118.045 12.4093 118.045 12.4093C118.045 12.4093 118.033 12.3857 118.033 12.3209C118.033 11.838 117.949 11.3668 117.775 10.878C117.522 10.1771 117.426 9.43503 117.36 8.79895C117.336 8.53392 117.348 8.25122 117.36 7.98619H117.354ZM106.729 12.2149C106.543 12.0559 106.369 11.8674 106.218 11.6554C106.134 11.5494 106.104 11.461 106.128 11.3904C106.146 11.3197 106.224 11.2549 106.357 11.196C106.903 10.9781 107.492 10.8544 108.116 10.8426C108.158 10.8426 108.195 10.8367 108.231 10.8367C108.885 10.8367 109.576 10.9781 110.375 11.2608C110.507 11.3079 110.633 11.355 110.759 11.3963C111.102 11.514 111.456 11.6318 111.786 11.8026C112.231 12.0205 112.633 12.3209 113.018 12.6095C113.102 12.6743 113.18 12.7332 113.264 12.7921C113.342 12.851 113.426 12.9158 113.504 12.9747C113.672 13.1042 113.847 13.2338 114.027 13.3516C114.375 13.5872 114.747 13.7109 115.144 13.7226H115.372C115.54 13.7344 115.715 13.7344 115.889 13.7344C115.991 13.7344 116.081 13.6873 116.123 13.6107C116.165 13.5401 116.159 13.4399 116.099 13.3457C116.009 13.1985 115.871 13.1101 115.709 13.1042C114.784 13.0512 114.171 12.4976 113.642 11.9086C113.252 11.4787 112.964 10.9722 112.681 10.4775L112.633 10.395C112.273 9.76484 111.864 9.14055 111.474 8.53981C111.354 8.35723 111.234 8.17466 111.114 7.98619C110.951 7.73294 110.825 7.47969 110.741 7.23233C110.561 6.67871 110.315 6.14276 110.075 5.63036C109.984 5.4419 109.894 5.24754 109.81 5.05908C109.66 4.72337 109.534 4.37589 109.414 4.03429L109.306 3.71625C109.174 3.35699 109.089 2.99773 108.999 2.59135C108.897 2.14963 108.855 1.67846 108.867 1.1484C108.867 1.04239 108.885 0.954045 108.921 0.871591C108.957 0.783247 108.987 0.765579 109.005 0.759689C109.017 0.759689 109.047 0.759689 109.125 0.806806C109.342 0.942266 109.552 1.11306 109.75 1.27208C109.822 1.33098 109.894 1.38987 109.96 1.44877C111.234 2.46766 112.165 3.29809 112.97 4.15797C113.654 4.8765 114.333 5.68337 115.126 6.69049C115.997 7.8095 116.489 9.06987 116.862 10.1594C116.91 10.3008 116.958 10.4421 117.012 10.5776C117.144 10.931 117.282 11.2961 117.336 11.6731C117.36 11.8615 117.384 12.0618 117.372 12.2679C117.354 12.5918 117.204 12.8274 116.934 12.9629C116.315 13.2809 116.279 13.8404 116.309 14.2291V14.2645C116.315 14.3234 116.321 14.3823 116.315 14.394C116.303 14.4058 116.225 14.4235 116.165 14.4294C115.492 14.5472 114.964 14.7298 114.507 15.0125C114.399 15.0713 114.327 15.142 114.267 15.2245C114.141 15.4129 113.949 15.5131 113.684 15.5248C113.198 15.5484 112.759 15.5072 112.351 15.3894C112.177 15.3364 112.009 15.2893 111.834 15.2421C111.474 15.142 111.102 15.036 110.741 14.9182C110.117 14.7062 109.498 14.3587 108.837 13.8581L108.465 13.5813C107.888 13.1455 107.288 12.692 106.729 12.2149ZM109.101 17.6156C108.579 17.6039 108.189 17.2976 107.864 17.0149C107.864 17.0149 107.852 17.0031 107.846 17.0031C107.672 16.8264 107.191 16.6203 106.807 16.4672C106.801 16.4672 106.789 16.4613 106.783 16.4613C106.627 16.4259 106.477 16.3788 106.327 16.3082C106.11 16.2021 105.87 16.102 105.594 16.0019C105.51 15.9725 105.456 15.9371 105.444 15.9018C105.426 15.8664 105.444 15.8017 105.486 15.7192C105.648 15.4012 105.918 15.1538 106.363 14.9182C106.627 14.7828 106.927 14.7062 107.191 14.7062H107.264C107.576 14.7062 107.786 14.7474 107.966 14.8534C108.321 15.0537 108.711 15.1361 109.089 15.2068L109.204 15.2304C109.486 15.2893 109.756 15.4071 110.014 15.519C110.093 15.5543 110.177 15.5896 110.255 15.6191C111.234 16.0313 112.291 16.261 113.396 16.3082H113.45C113.45 16.3082 113.492 16.3082 113.504 16.314C113.552 16.3258 113.6 16.3199 113.648 16.314C113.732 16.3082 113.738 16.314 113.75 16.3494C113.81 16.5025 113.75 16.7086 113.642 16.797C113.522 16.8912 113.372 16.9089 113.21 16.9266H113.162C112.831 16.9737 112.555 17.0444 112.309 17.1386C111.973 17.274 111.636 17.4036 111.3 17.5332C111.036 17.6333 110.777 17.7393 110.513 17.8394C110.453 17.863 110.423 17.8689 110.393 17.8571C109.972 17.6686 109.522 17.6274 109.101 17.6156ZM111.438 22.0269C110.531 22.7749 109.762 23.6583 109.125 24.4181C108.723 24.9128 108.273 25.3663 107.846 25.7786C107.516 26.0966 107.258 26.4147 107.065 26.7445C106.951 26.9329 106.807 27.0154 106.603 26.9918C106.044 26.9388 105.918 26.8799 105.798 26.3617C105.726 26.0318 105.708 25.6961 105.702 25.2956C105.678 24.7656 105.87 24.1766 106.044 23.7231C106.501 22.4981 107.3 21.3673 108.471 20.2542C109.456 19.3236 110.441 18.6522 111.486 18.1869C112.183 17.8807 112.783 17.7217 113.372 17.6863C113.432 17.6863 113.504 17.6863 113.57 17.651C113.63 17.6215 113.684 17.6098 113.744 17.6098C113.859 17.6098 113.973 17.6686 114.123 17.8041C114.201 17.8748 114.291 17.9513 114.291 17.9808C114.291 18.0102 114.195 18.1045 114.123 18.1693C113.859 18.4225 113.636 18.7052 113.468 19.0056C113.12 19.6299 113.18 20.0893 113.672 20.5899C113.702 20.6193 113.708 20.6311 113.714 20.637C113.708 20.637 113.702 20.6488 113.672 20.6723C113.594 20.7253 113.504 20.7725 113.39 20.8137C112.621 21.0905 111.979 21.5852 111.438 22.0269ZM114.651 28.052C114.555 28.1639 114.465 28.2875 114.381 28.4053C114.339 28.4642 114.297 28.5231 114.249 28.582C113.823 29.1415 113.378 29.648 112.922 30.1015C112.861 30.1604 112.789 30.2193 112.699 30.2841C112.531 30.396 112.477 30.3901 112.357 30.2311C112.201 30.0309 112.105 29.7894 112.063 29.4949C112.009 29.1533 111.997 28.7999 111.979 28.4583C111.967 28.211 111.955 27.9636 111.93 27.7163C111.888 27.1332 111.906 26.5325 111.985 25.9258C112.009 25.7197 112.033 25.5136 112.057 25.3015C112.123 24.6713 112.195 24.0176 112.375 23.3933C112.555 22.7808 112.777 22.3214 113.09 21.9504C113.234 21.7678 113.39 21.6559 113.57 21.597C113.913 21.491 114.171 21.279 114.411 21.0728C114.513 20.9786 114.603 20.9374 114.699 20.9374C114.729 20.9374 114.76 20.9432 114.796 20.955C114.892 20.9786 114.904 21.0198 114.892 21.0846C114.886 21.1199 114.88 21.1553 114.874 21.1906C114.868 21.2495 114.856 21.3084 114.838 21.3673C114.693 21.862 114.639 22.3626 114.603 22.9634C114.567 23.623 114.549 24.1648 114.549 24.6713C114.555 25.4488 114.663 26.185 114.868 26.8623C115.018 27.3452 114.952 27.7104 114.651 28.052ZM115.096 20.1658C114.741 20.0186 114.393 19.8655 114.045 19.7182C113.895 19.6593 113.853 19.5945 113.853 19.5769C113.883 19.0527 114.411 18.3813 114.964 18.3695L115.33 18.3577C115.552 18.3459 115.769 18.3401 115.985 18.3342C116.117 18.3283 116.261 18.3401 116.381 18.399C116.471 18.4402 116.549 18.452 116.621 18.4225C116.706 18.3931 116.766 18.3283 116.814 18.2164L116.832 18.1693C116.85 18.1221 116.868 18.0691 116.892 18.022C116.898 18.0044 116.904 18.0044 116.91 18.0102C116.91 18.1339 116.934 18.2282 117 18.2929C117.06 18.3636 117.156 18.3931 117.282 18.3872C117.192 18.77 117.318 19.1175 117.432 19.4296C117.456 19.4944 117.474 19.571 117.486 19.6417L117.498 19.7064L117.504 19.73C117.498 19.7359 117.492 19.7418 117.486 19.7477C117.348 19.942 116.916 20.0952 116.591 20.1658C116.585 20.1658 116.573 20.1717 116.561 20.1717C116.447 20.2188 116.309 20.2424 116.111 20.2424C115.468 20.3366 115.312 20.2542 115.306 20.2542C115.294 20.2365 115.276 20.2247 115.252 20.2188C115.222 20.2129 115.174 20.1953 115.096 20.1658ZM117.703 25.0895C117.324 26.0377 116.784 26.8799 116.087 27.5926C116.081 27.5926 116.069 27.6102 116.069 27.6102C116.045 27.6279 116.027 27.6515 116.003 27.6691C115.979 27.6986 115.925 27.7457 115.913 27.7516C115.883 27.7339 115.865 27.7104 115.853 27.6809C115.853 27.6632 115.853 27.6691 115.841 27.6574C115.727 27.4218 115.582 26.8093 115.534 26.6208C115.342 25.8316 115.252 25.0306 115.276 24.2414C115.282 24.0471 115.282 23.8527 115.282 23.6583C115.282 23.3403 115.282 23.0164 115.306 22.6983C115.348 22.1624 115.492 21.6382 115.618 21.2436C115.678 21.061 115.751 21.0198 116.015 21.0198H116.099C116.225 21.0316 116.363 21.0375 116.381 21.0552C116.393 21.0728 116.387 21.1612 116.387 21.2377C116.381 21.279 116.381 21.3261 116.381 21.3732C116.357 22.2272 116.688 22.9752 117.036 23.676C117.042 23.6937 117.054 23.7172 117.066 23.7349C117.096 23.7761 117.12 23.8174 117.132 23.8645C117.192 24.0647 117.336 24.1884 117.45 24.2709C117.769 24.5005 117.841 24.7361 117.703 25.0895ZM118.706 22.8574L118.652 22.9751C118.526 23.2578 118.393 23.5464 118.195 23.7938C118.141 23.8645 118.075 23.8998 118.015 23.8998H118.003C117.943 23.8939 117.889 23.8527 117.853 23.782C117.522 23.1401 117.18 22.4745 117.036 21.7383C116.934 21.1906 117.048 20.8137 117.414 20.5251C117.48 20.4721 117.54 20.4191 117.601 20.3661C117.655 20.3131 117.703 20.2659 117.763 20.2188C117.811 20.1835 117.853 20.1658 117.901 20.1658C117.943 20.1658 117.991 20.1835 118.033 20.2247C118.195 20.372 118.375 20.4603 118.61 20.5015C118.838 20.5428 118.97 20.6959 119.006 20.9609C119.018 21.0669 119.03 21.1847 119.036 21.2966C119.042 21.3555 119.048 21.4203 119.048 21.4733C119.072 21.9916 118.892 22.4628 118.706 22.8574ZM125.289 28.211L125.313 28.317C125.391 28.6468 125.463 28.9531 125.499 29.2534C125.499 29.3948 125.457 29.5008 125.379 29.5597C125.307 29.6068 125.211 29.6127 125.097 29.5774C124.754 29.4655 124.394 29.3418 123.949 29.1828C123.733 29.1062 123.535 28.9825 123.295 28.7823C123.078 28.5938 122.85 28.4171 122.628 28.2404C122.183 27.8929 121.727 27.5278 121.343 27.0978C120.64 26.2969 120.021 25.5607 119.541 24.7008C119.42 24.477 119.348 24.2355 119.27 23.9823C119.228 23.8232 119.18 23.6583 119.114 23.5052C119.096 23.4404 119.132 23.3639 119.156 23.3285C119.571 22.6571 119.727 21.8856 119.661 20.8372C119.643 20.5545 119.679 20.5074 119.973 20.4426C120.081 20.4132 120.195 20.3955 120.309 20.372C120.394 20.3602 120.484 20.3425 120.568 20.3248C120.772 20.2836 120.946 20.1835 121.12 20.0834L121.192 20.048C121.192 20.048 121.216 20.0304 121.222 20.0304C121.222 20.0304 121.222 20.0343 121.222 20.0421C121.355 20.584 121.679 21.0198 121.997 21.438L122.045 21.5086C122.219 21.7325 122.382 21.9445 122.514 22.1801C122.562 22.2625 122.616 22.345 122.706 22.398C123.229 22.7042 123.481 23.2048 123.745 23.729C124.364 24.9599 124.838 26.344 125.283 28.211H125.289ZM127.229 20.3248C127.229 20.3248 127.229 20.3307 127.241 20.3366C127.553 20.69 127.841 21.0728 128.112 21.4498L128.286 21.6794C128.706 22.2566 129.085 22.7042 129.463 23.0871C129.541 23.1636 129.565 23.199 129.565 23.199C129.553 23.2225 129.445 23.2696 129.409 23.2873C129.055 23.464 128.664 23.5052 128.196 23.5111H128.16C126.688 23.5111 125.409 23.2048 124.244 22.5864C123.805 22.3509 123.307 22.0858 122.904 21.703C122.766 21.5675 122.676 21.4026 122.574 21.2318C122.514 21.1376 122.46 21.0375 122.388 20.9432C122.274 20.7842 122.171 20.6193 122.063 20.4544C122.003 20.3602 121.943 20.2718 121.883 20.1776C121.805 20.0657 121.751 19.9302 121.721 19.7771C121.685 19.571 121.751 19.4591 121.943 19.3943C122.045 19.359 122.147 19.3413 122.237 19.3413C122.592 19.3236 122.928 19.1999 123.289 18.9585C123.307 18.9467 123.325 18.9349 123.337 18.9231L123.403 18.8583C123.433 18.8348 123.547 18.7759 123.919 18.7759C124.021 18.7759 124.148 18.7818 124.298 18.7936H124.322C124.964 18.7994 125.493 18.8583 125.985 19.1057C126.118 19.1705 126.238 19.2588 126.358 19.3472C126.418 19.3943 126.484 19.4414 126.556 19.4944L126.586 19.5298C126.959 19.9891 127.175 20.2601 127.229 20.3248ZM136.148 16.3199C135.944 16.6321 135.662 16.8736 135.307 17.0326C134.166 17.5332 133.145 17.8748 132.178 18.075C131.692 18.1751 131.187 18.234 130.682 18.2458C129.998 18.2694 129.343 18.4166 128.736 18.5756C128.208 18.7111 127.679 18.6581 127.229 18.5933C126.73 18.5285 126.238 18.399 125.757 18.2812C125.481 18.2105 125.211 18.1398 124.934 18.0809C124.82 18.0574 124.7 18.0338 124.586 18.0102C124.454 17.9808 124.316 17.9513 124.184 17.9219C124.009 17.8807 123.925 17.7864 123.919 17.6274C123.913 17.3565 123.865 16.9737 123.493 16.7086C123.487 16.7028 123.469 16.691 123.469 16.6792C123.463 16.6674 123.475 16.6439 123.493 16.6262C123.721 16.3612 123.763 16.0313 123.775 15.7486C123.775 15.5602 123.853 15.4306 124.015 15.3187C124.129 15.2421 124.238 15.1597 124.352 15.0772C124.508 14.9536 124.67 14.8299 124.832 14.7298C125.487 14.3351 126.226 14.1526 126.868 14.023C127.235 13.9464 127.601 13.9111 127.962 13.9052C128.34 13.9464 128.724 13.9641 129.097 13.9759C129.818 14.0053 130.562 14.0348 131.265 14.2586C131.637 14.3705 132.016 14.394 132.382 14.4117C132.55 14.4235 132.725 14.4294 132.893 14.4471C133.247 14.4883 133.608 14.5648 133.95 14.6355C134.088 14.665 134.226 14.6944 134.358 14.718C134.406 14.7298 134.454 14.7474 134.491 14.7769C134.905 15.0713 135.355 15.2245 135.83 15.3776C136.064 15.4542 136.22 15.572 136.28 15.731C136.341 15.8959 136.292 16.0961 136.148 16.3199Z" fill="#282828"/>
<path d="M128.664 10.6187C128.658 10.7601 128.561 10.9368 128.489 11.0546C128.159 11.6023 127.775 12.2384 127.336 12.8214C127.138 13.0982 126.862 13.2808 126.513 13.3692C126.393 13.4045 126.273 13.4339 126.153 13.4634C125.786 13.5517 125.402 13.6401 125.048 13.8168C124.465 14.1171 124.033 14.4234 123.702 14.7885L123.672 14.8239C123.672 14.8239 123.642 14.8592 123.618 14.8769C123.456 15.0418 123.456 15.0477 123.294 14.9063C122.849 14.5412 122.465 14.3292 122.062 14.2172C122.062 14.2114 122.075 14.2114 122.081 14.2055C122.207 14.1112 122.333 14.017 122.453 13.9228L122.693 13.7461C122.921 13.5753 123.108 13.3692 123.294 13.1689C123.402 13.0452 123.522 12.9215 123.642 12.8038C123.714 12.739 123.792 12.6801 123.87 12.6212C124.033 12.4975 124.201 12.3738 124.297 12.1971C124.663 11.5434 125.3 11.3196 125.973 11.084L126.099 11.0428C126.303 10.9662 126.507 10.8955 126.711 10.8249C127.222 10.6541 127.745 10.4715 128.249 10.2595C128.351 10.2123 128.447 10.2123 128.519 10.2595C128.609 10.3184 128.664 10.4538 128.664 10.6187Z" fill="#EFEDE4"/>
<path d="M136.123 16.3022C135.913 16.6143 135.63 16.8558 135.276 17.0148C134.141 17.5154 133.114 17.857 132.147 18.0573C131.66 18.1574 131.156 18.2163 130.651 18.2281C129.966 18.2516 129.312 18.3989 128.705 18.5579C128.177 18.6933 127.648 18.6403 127.198 18.5756C126.699 18.5108 126.206 18.3812 125.726 18.2634C125.45 18.1927 125.179 18.1221 124.903 18.0632C124.789 18.0396 124.675 18.016 124.555 17.9925C124.423 17.963 124.284 17.9336 124.152 17.9041C123.978 17.8629 123.894 17.7687 123.888 17.6097C123.882 17.3387 123.834 16.9559 123.462 16.6909C123.462 16.685 123.438 16.6732 123.438 16.6614C123.438 16.6497 123.444 16.6261 123.462 16.6084C123.696 16.3434 123.732 16.0136 123.744 15.7309C123.75 15.5424 123.828 15.4128 123.984 15.3009C124.098 15.2244 124.212 15.1419 124.32 15.0595C124.477 14.9358 124.639 14.8121 124.807 14.712C125.456 14.3174 126.2 14.1348 126.837 14.0052C127.204 13.9287 127.576 13.8933 127.93 13.8875C128.309 13.9287 128.693 13.9463 129.066 13.9581C129.786 13.9876 130.531 14.017 131.234 14.2408C131.612 14.3527 131.985 14.3763 132.351 14.394C132.519 14.4057 132.693 14.4116 132.862 14.4293C133.216 14.4705 133.576 14.5471 133.919 14.6178C134.057 14.6472 134.195 14.6767 134.327 14.7002C134.375 14.712 134.423 14.7297 134.459 14.7591C134.874 15.0536 135.33 15.2067 135.799 15.3598C136.033 15.4364 136.189 15.5542 136.249 15.7132C136.309 15.8781 136.267 16.0784 136.123 16.3022Z" fill="white"/>
<path d="M129.541 23.1811C129.541 23.1811 129.415 23.2518 129.379 23.2695C129.025 23.4462 128.634 23.4874 128.166 23.4933H128.13C126.658 23.4933 125.379 23.187 124.214 22.5686C123.775 22.333 123.277 22.068 122.874 21.6852C122.736 21.5497 122.646 21.3848 122.544 21.214C122.49 21.1198 122.43 21.0197 122.364 20.9254C122.25 20.7664 122.141 20.6015 122.033 20.4366C121.973 20.3424 121.913 20.254 121.853 20.1598C121.775 20.0479 121.721 19.9124 121.697 19.7593C121.661 19.5531 121.727 19.4412 121.913 19.3765C122.015 19.3411 122.117 19.3235 122.207 19.3235C122.562 19.3058 122.898 19.1821 123.259 18.9406C123.283 18.9289 123.295 18.9171 123.307 18.9053L123.325 18.8876L123.373 18.8405C123.373 18.8405 123.517 18.7581 123.889 18.7581C123.991 18.7581 124.118 18.7639 124.268 18.7757H124.292C124.934 18.7816 125.463 18.8405 125.961 19.0879C126.094 19.1527 126.208 19.241 126.328 19.3293C126.394 19.3765 126.454 19.4236 126.526 19.4766L126.556 19.5119C126.929 19.9713 127.145 20.2422 127.199 20.307C127.205 20.307 127.205 20.3129 127.211 20.3188C127.523 20.6722 127.811 21.055 128.082 21.4319L128.256 21.6616C128.676 22.2388 129.055 22.6864 129.433 23.0692C129.511 23.1458 129.535 23.1811 129.541 23.1811Z" fill="#F4F4F4"/>
<path d="M125.469 29.2358C125.469 29.3771 125.427 29.4831 125.349 29.542C125.277 29.5891 125.18 29.595 125.066 29.5597C124.724 29.4478 124.364 29.3241 123.919 29.1651C123.703 29.0885 123.505 28.9648 123.264 28.7646C123.048 28.5761 122.82 28.3994 122.604 28.2228C122.153 27.8753 121.697 27.5101 121.312 27.0802C120.61 26.2792 119.991 25.543 119.51 24.6831C119.39 24.4593 119.318 24.2178 119.246 23.9646C119.198 23.8056 119.15 23.6407 119.09 23.4875C119.066 23.4228 119.102 23.3462 119.126 23.3109C119.546 22.6394 119.703 21.8679 119.631 20.8196C119.613 20.5369 119.649 20.4898 119.943 20.425C120.051 20.3955 120.165 20.3778 120.279 20.3543C120.363 20.3425 120.453 20.3248 120.537 20.3072C120.742 20.2659 120.922 20.1658 121.09 20.0657L121.162 20.0304C121.162 20.0304 121.186 20.0127 121.192 20.0127C121.192 20.0186 121.198 20.0186 121.198 20.0245C121.33 20.5663 121.655 21.0021 121.973 21.4203L122.021 21.491C122.195 21.7148 122.357 21.9268 122.49 22.1624C122.538 22.2448 122.592 22.3273 122.682 22.3803C123.204 22.6866 123.457 23.1872 123.721 23.7113C124.346 24.9423 124.814 26.3263 125.259 28.1933L125.283 28.2993C125.361 28.6291 125.433 28.9354 125.469 29.2358Z" fill="#F4F4F4"/>
<path d="M119.024 21.4557C119.042 21.974 118.862 22.4451 118.675 22.8397L118.621 22.9575C118.495 23.2402 118.363 23.5288 118.165 23.7762C118.117 23.8468 118.051 23.8822 117.985 23.8822H117.973C117.913 23.8763 117.859 23.8351 117.823 23.7644C117.492 23.1224 117.15 22.4569 117.012 21.7207C116.904 21.173 117.018 20.796 117.384 20.5075C117.45 20.4545 117.51 20.4014 117.57 20.3484C117.624 20.2954 117.678 20.2483 117.732 20.2012C117.78 20.1659 117.829 20.1482 117.871 20.1482C117.919 20.1482 117.961 20.1659 118.003 20.2071C118.165 20.3543 118.351 20.4427 118.579 20.4839C118.814 20.5251 118.94 20.6783 118.976 20.9433C118.994 21.0493 119 21.1671 119.006 21.279C119.012 21.3379 119.018 21.4027 119.024 21.4557Z" fill="#EFEDE4"/>
<path d="M117.673 25.0716C117.3 26.0199 116.754 26.8621 116.057 27.5747C116.051 27.5747 116.039 27.5924 116.039 27.5924C116.015 27.6101 115.997 27.6336 115.979 27.6513C115.949 27.6807 115.901 27.7278 115.889 27.7337C115.853 27.7161 115.835 27.6925 115.829 27.6631C115.823 27.6454 115.829 27.6513 115.817 27.6395C115.696 27.4039 115.552 26.7914 115.51 26.6029C115.312 25.8137 115.222 25.0128 115.246 24.2235C115.252 24.0292 115.252 23.8348 115.252 23.6405C115.252 23.3224 115.252 22.9985 115.276 22.6805C115.318 22.1445 115.468 21.6204 115.588 21.2258C115.648 21.0432 115.721 21.002 115.985 21.002H116.069C116.201 21.0137 116.333 21.0196 116.351 21.0373C116.363 21.055 116.357 21.1433 116.357 21.2199C116.351 21.2611 116.351 21.3082 116.351 21.3553C116.327 22.2093 116.657 22.9573 117.006 23.6581C117.018 23.6758 117.03 23.6994 117.042 23.717C117.066 23.7583 117.09 23.7995 117.102 23.8466C117.162 24.0469 117.306 24.1705 117.426 24.253C117.745 24.4827 117.817 24.7183 117.673 25.0716Z" fill="white"/>
<path d="M114.619 28.0343C114.523 28.1462 114.433 28.2699 114.349 28.3877C114.307 28.4465 114.265 28.5054 114.223 28.5643C113.796 29.1238 113.346 29.6304 112.889 30.0839C112.829 30.1427 112.757 30.2016 112.667 30.2664C112.505 30.3783 112.445 30.3724 112.325 30.2134C112.169 30.0132 112.073 29.7717 112.03 29.4772C111.982 29.1356 111.964 28.7823 111.946 28.4407C111.934 28.1933 111.922 27.9459 111.898 27.6986C111.862 27.1155 111.874 26.5148 111.952 25.9081C111.976 25.702 112 25.4959 112.024 25.2838C112.091 24.6537 112.163 23.9999 112.343 23.3756C112.523 22.7631 112.745 22.3037 113.058 21.9327C113.202 21.7501 113.358 21.6382 113.538 21.5793C113.88 21.4733 114.139 21.2613 114.379 21.0551C114.481 20.9609 114.571 20.9197 114.667 20.9197C114.697 20.9197 114.733 20.9256 114.763 20.9373C114.865 20.9609 114.871 21.0021 114.865 21.0669C114.853 21.1023 114.847 21.1376 114.841 21.1729C114.835 21.2318 114.823 21.2907 114.805 21.3496C114.661 21.8443 114.607 22.345 114.571 22.9457C114.535 23.6053 114.517 24.1472 114.517 24.6537C114.517 25.4311 114.631 26.1673 114.835 26.8446C114.986 27.3275 114.92 27.6927 114.619 28.0343Z" fill="#F4F4F4"/>
<path d="M113.436 18.9879C113.088 19.6122 113.148 20.0715 113.647 20.5722C113.671 20.6016 113.677 20.6134 113.683 20.6193C113.677 20.6193 113.671 20.6311 113.641 20.6546C113.562 20.7076 113.472 20.7547 113.358 20.796C112.589 21.0728 111.947 21.5675 111.406 22.0092C110.499 22.7572 109.73 23.6406 109.1 24.4004C108.691 24.8951 108.241 25.3486 107.814 25.7609C107.484 26.0789 107.232 26.3969 107.033 26.7268C106.919 26.9152 106.775 26.9977 106.571 26.9741C106.012 26.9211 105.892 26.8622 105.766 26.3439C105.694 26.0141 105.676 25.6784 105.67 25.2779C105.646 24.7479 105.838 24.1589 106.012 23.7054C106.475 22.4804 107.268 21.3496 108.439 20.2365C109.424 19.3059 110.409 18.6345 111.454 18.1692C112.151 17.863 112.752 17.7039 113.34 17.6686C113.406 17.6686 113.472 17.6686 113.538 17.6333C113.598 17.6038 113.653 17.592 113.713 17.592C113.827 17.592 113.941 17.6509 114.091 17.7864C114.169 17.8571 114.259 17.9336 114.265 17.9631C114.265 17.9866 114.163 18.0868 114.097 18.1515C113.827 18.4048 113.604 18.6875 113.436 18.9879Z" fill="white"/>
<path d="M113.612 16.7793C113.492 16.8735 113.342 16.8912 113.179 16.9088H113.131C112.801 16.956 112.525 17.0266 112.279 17.1209C111.942 17.2563 111.606 17.3859 111.269 17.5155C111.011 17.6156 110.747 17.7216 110.483 17.8217C110.429 17.8453 110.393 17.8512 110.362 17.8394C109.948 17.6509 109.498 17.6097 109.071 17.5979C108.549 17.5861 108.158 17.2799 107.84 16.9972C107.834 16.9972 107.822 16.9854 107.816 16.9854C107.642 16.8087 107.161 16.6026 106.777 16.4495C106.771 16.4495 106.759 16.4436 106.753 16.4436C106.602 16.4082 106.446 16.3611 106.302 16.2904C106.08 16.1844 105.84 16.0843 105.563 15.9842C105.479 15.9547 105.425 15.9194 105.413 15.8841C105.395 15.8487 105.413 15.7839 105.455 15.7015C105.617 15.3834 105.888 15.1361 106.332 14.9005C106.596 14.765 106.897 14.6885 107.161 14.6885H107.233C107.551 14.6885 107.756 14.7297 107.936 14.8357C108.29 15.036 108.681 15.1184 109.059 15.1891L109.173 15.2126C109.456 15.2715 109.726 15.3893 109.984 15.5012C110.062 15.5366 110.146 15.5719 110.224 15.6014C111.203 16.0136 112.261 16.2433 113.366 16.2904H113.42C113.42 16.2904 113.462 16.2904 113.474 16.2963C113.522 16.3081 113.576 16.3022 113.618 16.2963C113.702 16.2904 113.708 16.2963 113.726 16.3317C113.78 16.4848 113.726 16.6909 113.612 16.7793Z" fill="#EFEDE4"/>
<path d="M126.261 3.60421C126.261 3.81034 126.219 4.0047 126.141 4.18728C125.768 5.02948 125.498 5.91881 125.24 6.77869C125.186 6.94948 125.138 7.12028 125.084 7.29108C124.681 8.59267 124.177 10.124 123.51 11.5669C123.24 12.1441 122.981 12.6565 122.549 13.0687C122.393 13.2219 122.213 13.3927 122.008 13.5164C121.726 13.6813 121.444 13.8815 121.173 14.1171C121.041 14.229 120.885 14.2526 120.711 14.2761C120.729 14.2113 120.759 14.1524 120.783 14.0935C121.005 13.5635 120.915 13.1983 120.453 12.8391C120.17 12.6152 119.852 12.3856 119.438 12.3384C119.317 12.3208 119.227 12.2324 119.149 12.0499C118.957 11.6081 118.909 11.1546 119.005 10.7129C119.209 9.78826 119.648 8.94605 120.302 8.20985C120.399 8.10973 120.477 7.99783 120.543 7.88593C120.591 7.81525 120.645 7.75635 120.705 7.72691C120.717 7.71513 120.729 7.70335 120.735 7.69157L121.36 6.9377C121.39 6.90237 121.426 6.86703 121.462 6.83169L122.279 6.06016C122.447 5.87758 122.627 5.70678 122.807 5.54188C123.005 5.36519 123.204 5.17672 123.384 4.97648C123.612 4.72323 123.846 4.47586 124.08 4.23439C124.177 4.13427 124.273 4.02826 124.369 3.92813C124.597 3.68666 124.777 3.42752 124.915 3.16249C125.06 2.87979 125.522 2.61476 125.858 2.63243C125.906 2.63832 125.93 2.65599 125.967 2.71488C126.165 3.01525 126.261 3.30384 126.261 3.60421Z" fill="white"/>
<path d="M120.406 7.03781C119.992 7.49131 119.475 8.05671 119.097 8.68689C118.61 9.50554 118.34 10.2182 118.25 10.9249C118.184 11.4314 118.256 11.9026 118.472 12.309C118.484 12.3266 118.49 12.3443 118.49 12.3561H118.454C118.37 12.3502 118.292 12.362 118.208 12.3679C118.166 12.3738 118.13 12.3738 118.07 12.3855C118.034 12.3914 118.016 12.3914 118.016 12.3914C118.016 12.3914 118.004 12.3679 118.004 12.3031C118.004 11.8201 117.919 11.349 117.745 10.8601C117.493 10.1593 117.397 9.4172 117.337 8.78113C117.313 8.5161 117.319 8.2334 117.331 7.96837C117.331 7.82702 117.337 7.68567 117.337 7.54432C117.349 7.46775 117.403 7.09671 117.463 6.761L117.493 6.57843C117.613 5.96002 117.721 5.37695 118.124 4.88812C118.376 4.58186 118.682 4.34039 119.037 4.17548C119.151 4.11659 119.331 4.07536 119.547 4.32272C119.697 4.49941 119.823 4.70554 119.914 4.94702C120.07 5.35929 120.22 5.77156 120.37 6.18972L120.496 6.54898C120.574 6.74922 120.55 6.89057 120.406 7.03781Z" fill="#F4F4F4"/>
<path d="M117.342 12.2502C117.324 12.5741 117.174 12.8097 116.903 12.9451C116.285 13.2632 116.249 13.8227 116.279 14.2114V14.2467C116.285 14.3056 116.291 14.3645 116.291 14.3763C116.273 14.3881 116.195 14.4057 116.135 14.4116C115.462 14.5294 114.939 14.712 114.477 14.9947C114.375 15.0536 114.297 15.1243 114.237 15.2067C114.11 15.3952 113.918 15.4953 113.654 15.5071C113.167 15.5307 112.729 15.4894 112.32 15.3716C112.146 15.3186 111.978 15.2715 111.804 15.2244C111.444 15.1243 111.071 15.0183 110.711 14.9005C110.092 14.6884 109.467 14.341 108.807 13.8403L108.434 13.5635C107.858 13.1277 107.257 12.6742 106.698 12.1972C106.512 12.0381 106.344 11.8497 106.188 11.6376C106.104 11.5316 106.074 11.4433 106.098 11.3726C106.116 11.3019 106.194 11.2372 106.326 11.1783C106.873 10.9603 107.461 10.8367 108.086 10.8249C108.128 10.8249 108.164 10.819 108.206 10.819C108.861 10.819 109.546 10.9603 110.35 11.243C110.477 11.2902 110.603 11.3373 110.729 11.3785C111.071 11.4963 111.426 11.6141 111.756 11.7849C112.2 12.0028 112.603 12.3032 112.987 12.5918C113.071 12.6565 113.149 12.7154 113.233 12.7743C113.312 12.8332 113.396 12.898 113.48 12.9569C113.642 13.0865 113.816 13.2161 113.996 13.3338C114.345 13.5694 114.723 13.6931 115.119 13.7049H115.342C115.51 13.7167 115.684 13.7167 115.858 13.7167C115.966 13.7167 116.05 13.6696 116.093 13.593C116.135 13.5223 116.129 13.4222 116.068 13.328C115.984 13.1807 115.84 13.0924 115.678 13.0865C114.753 13.0335 114.14 12.4799 113.612 11.8909C113.227 11.461 112.933 10.9545 112.657 10.4597L112.603 10.3773C112.242 9.7471 111.834 9.1228 111.444 8.52207C111.323 8.33949 111.203 8.15691 111.083 7.96845C110.921 7.71519 110.795 7.46194 110.711 7.21458C110.531 6.66096 110.284 6.12501 110.044 5.61262C109.954 5.42415 109.864 5.2298 109.78 5.04133C109.63 4.70562 109.503 4.35814 109.383 4.01654L109.275 3.69851C109.143 3.33924 109.059 2.97998 108.969 2.5736C108.873 2.13188 108.825 1.66072 108.837 1.13066C108.843 1.02464 108.861 0.936299 108.891 0.853845C108.933 0.765502 108.957 0.747833 108.975 0.741943C108.987 0.741943 109.017 0.741943 109.095 0.78906C109.317 0.92452 109.522 1.09532 109.72 1.25434C109.792 1.31323 109.864 1.37213 109.936 1.43102C111.203 2.44992 112.134 3.28035 112.939 4.14023C113.624 4.85875 114.309 5.66562 115.095 6.67274C115.966 7.79176 116.459 9.05213 116.831 10.1417C116.879 10.283 116.927 10.4244 116.981 10.5599C117.114 10.9132 117.252 11.2784 117.306 11.6553C117.33 11.8438 117.354 12.044 117.342 12.2502Z" fill="white"/>
</g>
<defs>
<clipPath id="clip0_10415_1658">
<rect width="137" height="48" fill="white"/>
</clipPath>
</defs>
</svg>
